<svg width="32" height="27" viewBox="0 0 32 27" fill="none" xmlns="http://www.w3.org/2000/svg">
<path fill-rule="evenodd" clip-rule="evenodd" d="M0.72575 0.174133C0.324927 0.174133 0 0.490197 0 0.880075C0 1.26995 0.324927 1.58602 0.72575 1.58602H2.66054C3.6775 1.58602 4.55901 2.27081 4.7839 3.23552L8.36619 18.6032C8.74099 20.2111 10.2102 21.3524 11.9052 21.3524H26.3706C27.0208 21.3524 27.5917 20.9317 27.7678 20.3228L29.7157 13.587H13.7894C13.3915 13.587 13.0689 13.271 13.0689 12.8811C13.0689 12.4912 13.3915 12.1751 13.7894 12.1751H30.1239L31.6464 6.90994C31.9069 6.00923 31.2111 5.11572 30.2492 5.11572H6.7105L6.19946 2.92332C5.82466 1.31545 4.35548 0.174133 2.66054 0.174133H0.72575ZM13.6893 25.588C13.6893 26.3678 13.0442 26.9999 12.2483 26.9999C11.4525 26.9999 10.8074 26.3678 10.8074 25.588C10.8074 24.8082 11.4525 24.1761 12.2483 24.1761C13.0442 24.1761 13.6893 24.8082 13.6893 25.588ZM23.7762 26.9999C24.572 26.9999 25.2172 26.3678 25.2172 25.588C25.2172 24.8082 24.572 24.1761 23.7762 24.1761C22.9803 24.1761 22.3352 24.8082 22.3352 25.588C22.3352 26.3678 22.9803 26.9999 23.7762 26.9999Z" fill="white"/>
</svg>
