<svg width="18" height="21" viewBox="0 0 18 21" fill="none" xmlns="http://www.w3.org/2000/svg">
<path fill-rule="evenodd" clip-rule="evenodd" d="M0.44043 6.50944C0.44043 6.01542 0.844409 5.61496 1.34274 5.61496H14.4263C14.9246 5.61496 15.3286 6.01542 15.3286 6.50944V17.6905C15.3286 19.049 14.2177 20.1503 12.8472 20.1503H2.92179C1.55137 20.1503 0.44043 19.049 0.44043 17.6905V6.50944ZM11.0426 9.19289C10.6689 9.19289 10.3659 8.89253 10.3659 8.52203V4.27323C10.3659 2.91471 9.25494 1.8134 7.88451 1.8134C6.51408 1.8134 5.40315 2.91471 5.40315 4.27323V8.52203C5.40315 8.89253 5.10015 9.19289 4.72642 9.19289C4.35268 9.19289 4.04968 8.89253 4.04968 8.52203V4.27323C4.04968 2.17369 5.7666 0.47168 7.88451 0.47168C10.0024 0.47168 11.7193 2.17369 11.7193 4.27323V8.52203C11.7193 8.89253 11.4163 9.19289 11.0426 9.19289Z" fill="#E6E6E6"/>
<path d="M14.7916 15.4062C14.7916 15.2316 14.6474 15.09 14.4695 15.09C14.2916 15.09 14.1474 15.2316 14.1474 15.4062V17.3038H12.2148C12.0369 17.3038 11.8927 17.4454 11.8927 17.6201C11.8927 17.7947 12.0369 17.9363 12.2148 17.9363H14.1474V19.8339C14.1474 20.0086 14.2916 20.1502 14.4695 20.1502C14.6474 20.1502 14.7916 20.0086 14.7916 19.8339V17.9363H16.7242C16.9021 17.9363 17.0463 17.7947 17.0463 17.6201C17.0463 17.4454 16.9021 17.3038 16.7242 17.3038H14.7916V15.4062Z" fill="black" stroke="black" stroke-linecap="round"/>
</svg>
