<svg width="300" height="320" viewBox="0 0 351 388" fill="none" xmlns="http://www.w3.org/2000/svg">
<g filter="url(#filter0_d_20_81)">
<ellipse cx="165.01" cy="202.827" rx="125.01" ry="125.173" fill="white"/>
</g>
<ellipse cx="213.091" cy="129.298" rx="14.8614" ry="14.8808" fill="#CDA792"/>
<path d="M210.641 134.55C210.641 125.885 210.641 117.221 210.641 108.556C210.641 97.7391 210.11 86.7902 211.803 76.0498C214.609 58.2563 222.92 39.3696 234.82 24.9613C243.578 14.3585 254.975 6.07116 269.753 5.05526C279.454 4.38841 285.558 9.82476 288.992 17.7083C291.576 23.6395 290.831 30.9693 290.678 37.2437C290.588 40.9396 288.421 44.1222 287.278 47.5673C285.9 51.7177 283.997 55.8531 281.901 59.7438C279.033 65.0694 275.983 69.9476 272.369 74.8851C269.765 78.4423 267.779 82.8184 264.522 85.9498C259.678 90.6073 255.93 96.158 250.921 100.721C247.936 103.44 245.066 106.129 241.912 108.715C238.377 111.613 235.575 115.565 232.089 118.827C229.131 121.594 225.73 123.665 222.789 126.344C220.598 128.34 217.001 130.616 214.303 132.062C212.642 132.952 211.118 135.447 209.595 133.597" stroke="#686868" stroke-width="10" stroke-linecap="round"/>
<path d="M233.831 115.622C234.351 116.434 234.882 117.149 235.56 117.828C236.06 118.329 235.563 117.85 235.384 117.635C233.939 115.898 233.073 113.573 232.119 111.552C231.653 110.566 231.233 109.561 230.775 108.572C230.655 108.312 230.371 107.53 230.371 107.816C230.371 108.318 231.989 109.523 232.285 109.838C233.398 111.019 234.434 112.273 235.534 113.459C235.571 113.5 234.643 112.572 234.375 112.334C233.219 111.31 234.813 112.553 235.165 112.879C236.567 114.18 237.934 115.516 239.318 116.835C239.376 116.89 240.627 117.908 239.994 117.591C239.432 117.31 240.119 117.827 240.301 118.066C240.481 118.302 241.122 118.86 240.836 118.778C239.953 118.525 238.973 116.974 237.974 117.116C237.81 117.14 238.201 117.359 238.326 117.468C238.788 117.87 239.21 118.318 239.642 118.752C240.099 119.209 241.602 120.405 241.03 120.105C239.836 119.48 238.811 118.484 237.72 117.705C237.004 117.195 235.369 116.498 234.902 115.719C234.706 115.393 235.62 115.972 235.955 116.149C237.023 116.715 238.019 117.395 239.028 118.057C240.138 118.786 243.392 121.079 242.364 120.237C241.056 119.166 239.603 118.217 238.203 117.275C237.415 116.744 236.624 116.218 235.832 115.692C235.628 115.557 235.276 115.233 235.007 115.218C234.847 115.209 235.133 115.517 235.235 115.64C235.831 116.356 236.403 117.087 236.956 117.837C237.098 118.03 239.569 121.11 239.414 121.213C239.022 121.475 235.652 118.555 235.323 118.312C233.62 117.052 231.86 115.871 230.126 114.655C228.653 113.623 232.972 116.865 234.261 118.119C234.51 118.362 236.901 120.528 235.446 119.376C234.288 118.459 233.167 117.599 231.846 116.923C231.002 116.491 230.679 116.235 231.337 117.187C232.067 118.241 232.628 119.387 233.321 120.457C233.66 120.98 231.859 120.216 231.706 120.14C230.664 119.629 229.667 119.031 228.642 118.488C227.762 118.021 228.07 118.087 228.721 118.655C229.378 119.229 230.1 119.816 230.714 120.431C231.224 120.941 229.513 119.629 228.94 119.191C227.692 118.237 226.426 117.521 224.823 117.521C224.742 117.521 225.351 118.524 225.534 118.708C225.816 118.99 225.966 119.455 226.166 119.815C226.635 120.661 227.236 121.426 227.703 122.268C228.334 123.406 229.072 124.494 229.634 125.67C230.132 126.713 231.365 129.958 230.951 128.879C230.298 127.179 229.273 125.484 228.458 123.85C227.993 122.92 227.46 122.065 226.956 121.169C226.519 120.391 226.214 119.49 225.534 118.945C225.264 118.729 224.974 118.511 224.665 118.347C223.965 117.976 224.283 117.749 224.981 118.224C227.073 119.647 229.168 121.31 230.986 123.068C233.357 125.36 235.202 128.164 237.606 130.399C238.135 130.891 237.24 129.623 237.202 129.547C234.659 124.486 233.295 118.898 231.302 113.618C230.262 110.862 229.011 108.128 227.07 105.882C226.975 105.771 226.02 104.82 226.122 105.055C226.273 105.403 226.6 105.739 226.825 106.022C228.204 107.761 229.488 109.561 230.74 111.394C233.631 115.625 236.486 119.879 239.397 124.096C239.526 124.283 240.967 126.09 240.02 125.142C238.248 123.368 236.532 121.553 234.823 119.719C234.704 119.591 232.949 118.055 232.953 118.101C232.989 118.627 233.489 119.27 233.708 119.719C234.226 120.783 234.656 121.877 235.06 122.989C235.329 123.729 235.646 124.439 235.938 125.169C236.017 125.368 236.06 125.73 235.78 125.38C233.705 122.783 232.41 119.412 230.775 116.536C230.082 115.318 229.043 114.167 228.475 112.888C227.851 111.482 230.212 115.427 231.056 116.712C232.147 118.372 233.133 120.123 234.269 121.749C234.525 122.115 233.198 120.984 233.04 120.853C232.727 120.591 231.925 119.846 231.495 119.806C231.433 119.801 232.087 121.54 232.127 121.635C232.422 122.332 233.604 124.157 232.97 123.745C232.498 123.438 232.133 122.575 231.864 122.127C231.19 121.005 230.543 119.866 229.95 118.699C229.637 118.083 228.633 116.775 228.633 116.044C228.633 115.845 228.931 116.313 229.046 116.475C229.558 117.197 230.012 117.959 230.512 118.69C231.133 119.599 233.23 122.141 232.452 121.362C231.683 120.592 231.157 119.639 230.538 118.752C230.446 118.619 229.67 117.469 230.108 118.259C230.813 119.53 231.36 120.832 231.934 122.162C232.25 122.894 232.408 123.355 232.408 124.131C232.408 124.713 232.229 124.8 231.697 124.8C231.518 124.8 230.668 125.15 230.828 124.87C231.063 124.457 231.087 123.97 231.214 123.516C232.118 120.293 233.584 117.174 235.06 114.18C235.712 112.856 236.78 111.351 237.114 109.89C237.252 109.288 237.028 108.921 236.675 108.466C236.331 108.024 235.869 106.761 235.174 106.761C234.713 106.761 234.766 106.902 235.077 107.288C236.765 109.387 238.898 111.264 240.836 113.125C242 114.242 243.228 115.314 244.471 116.343C245.075 116.843 244.61 116.703 244.12 116.466C242.033 115.455 239.885 114.609 237.729 113.758C236.818 113.399 235.908 113.035 235.007 112.651C234.765 112.548 234.057 112.347 233.936 112.053C233.855 111.857 234.363 112.053 234.568 112.106C235.879 112.445 237.13 113.019 238.352 113.591C240.559 114.626 242.67 115.847 244.919 116.791C245.996 117.243 243.665 115.404 243.514 115.27C241.894 113.837 240.338 112.29 238.606 110.989C236.814 109.643 239.171 112.305 239.449 112.739C240.811 114.86 235.524 109.564 233.743 107.781C232.768 106.805 234.198 107.719 234.603 107.974C236.039 108.879 237.483 109.776 238.94 110.646C240.026 111.295 237.416 110.717 236.991 110.717" stroke="white" stroke-width="3" stroke-linecap="round"/>
<path d="M237.612 106.157C237.817 106.593 238.17 106.935 238.494 107.285C239.042 107.876 239.602 108.456 240.149 109.048C240.994 109.963 241.841 110.881 242.703 111.78C243.067 112.16 243.418 112.55 243.773 112.939C243.972 113.158 244.19 113.345 244.397 113.552" stroke="white" stroke-width="3" stroke-linecap="round"/>
<path d="M238.438 103.75C238.504 103.971 238.686 104.151 238.842 104.313C239.254 104.741 239.733 105.101 240.177 105.494C241.069 106.283 241.823 107.214 242.614 108.101C242.825 108.338 243.048 108.563 243.27 108.789C243.446 108.969 243.589 109.175 243.757 109.362C243.966 109.593 244.218 109.786 244.422 110.023C244.627 110.262 244.845 110.484 245.056 110.717C245.132 110.8 245.184 110.873 245.234 110.97C245.348 111.193 245.555 111.346 245.699 111.547" stroke="white" stroke-width="3" stroke-linecap="round"/>
<path d="M244.023 110.355C244.324 110.349 244.618 110.31 244.921 110.31C245.151 110.31 245.326 110.193 245.544 110.177C245.73 110.163 245.88 110.023 246.067 110.122C246.16 110.172 246.299 110.233 246.368 110.32C246.433 110.402 246.289 110.409 246.245 110.389C246.073 110.312 245.94 110.166 245.766 110.098C245.621 110.041 245.497 109.871 245.366 109.776C245.084 109.573 244.81 109.43 244.489 109.287C244.183 109.151 243.891 108.937 243.6 108.775C243.086 108.489 242.544 108.222 242.025 107.929C241.524 107.647 241.023 107.222 240.598 106.839C240.111 106.4 239.653 105.971 239.38 105.35C239.306 105.183 239.089 105.026 239.089 104.836" stroke="white" stroke-width="3" stroke-linecap="round"/>
<path d="M238.378 103.857C238.668 103.857 239.023 103.808 239.309 103.879C239.483 103.923 239.523 104.034 239.667 104.114C239.804 104.191 239.861 104.371 239.968 104.49C240.101 104.638 240.263 104.858 240.378 105.024C240.646 105.412 241.023 105.749 241.356 106.082C241.985 106.713 242.636 107.322 243.287 107.929C243.959 108.556 244.593 109.237 245.329 109.794C245.691 110.067 246.104 110.392 246.423 110.711C246.672 110.96 246.831 111.221 247.134 111.423" stroke="white" stroke-width="3"/>
<path d="M247.712 110.978C247.331 110.746 246.96 110.508 246.591 110.266C246.27 110.056 245.967 109.902 245.625 109.71C245.255 109.501 244.836 109.267 244.423 109.163C243.87 109.025 243.362 108.719 242.84 108.506C241.889 108.118 240.922 107.416 240.222 106.681C239.76 106.195 239.394 105.635 239.153 105.014C239.098 104.872 239.037 104.605 238.946 104.49C238.764 104.263 239.25 104.539 239.321 104.569C239.583 104.68 239.801 104.877 240.042 105.014C240.099 105.047 240.289 105.203 240.334 105.259C240.414 105.36 240.564 105.404 240.655 105.494C240.812 105.652 241.024 105.84 241.222 105.939C241.49 106.073 241.7 106.338 241.953 106.483C242.213 106.631 242.472 106.856 242.689 107.062C242.942 107.302 243.222 107.506 243.467 107.752C243.976 108.261 244.499 108.74 245.001 109.242C245.246 109.489 245.478 109.841 245.778 110.041C246.093 110.251 246.371 110.635 246.734 110.756" stroke="white" stroke-width="3"/>
<path d="M224.182 118.165C224.456 118.626 224.798 119.079 225.151 119.478C225.722 120.121 226.171 120.913 226.691 121.603C227.1 122.145 227.463 122.724 227.888 123.258C228.134 123.568 228.334 123.909 228.585 124.216C228.876 124.573 229.245 124.922 229.484 125.313C229.998 126.153 230.916 126.826 231.093 127.825C231.156 128.176 231.211 128.661 231.068 128.998C231.02 129.111 230.744 129.554 230.568 129.455C230.226 129.265 229.991 128.478 229.871 128.142C229.777 127.88 229.671 127.632 229.655 127.356C229.642 127.108 229.443 126.863 229.427 126.614C229.406 126.269 229.209 125.695 229.041 125.358C228.851 124.976 228.816 124.508 228.686 124.102C228.564 123.721 228.514 123.328 228.388 122.947C228.002 121.771 227.442 120.654 226.919 119.535" stroke="white" stroke-width="3"/>
<g filter="url(#filter1_d_20_81)">
<path d="M120 202.625C124.5 202.625 128.125 201.396 130.875 198.938C132.917 197.021 133.958 194.729 134 192.062C134 188.812 132.062 185.917 128.188 183.375C127.438 182.917 126.562 182.396 125.562 181.812C128.938 179.979 130.938 177.479 131.562 174.312C131.688 173.771 131.75 173.229 131.75 172.688C131.75 168.938 129.958 166.292 126.375 164.75C124.667 164 122.75 163.625 120.625 163.625C116.333 163.625 113.062 164.896 110.812 167.438C109.354 169.104 108.625 171.125 108.625 173.5C108.625 176.667 110.604 179.5 114.562 182C115.021 182.25 115.5 182.521 116 182.812C111.625 184.146 108.917 186.583 107.875 190.125C107.625 191.042 107.5 191.938 107.5 192.812C107.5 196.312 109.125 198.979 112.375 200.812C114.542 202.021 117.083 202.625 120 202.625ZM114.312 171.062C114.312 168.312 115.729 166.562 118.562 165.812C119.438 165.562 120.375 165.438 121.375 165.438C124.417 165.438 126.708 166.458 128.25 168.5C129.125 169.708 129.562 171.104 129.562 172.688C129.562 175.479 128.25 177.833 125.625 179.75C125.083 180.167 124.479 180.542 123.812 180.875C120.104 178.833 117.667 177.229 116.5 176.062C115.042 174.562 114.312 172.896 114.312 171.062ZM109.688 192.688C109.688 189.854 110.979 187.562 113.562 185.812C114.854 184.979 116.354 184.375 118.062 184C121.854 186.083 124.312 187.604 125.438 188.562C127.271 190.271 128.208 192.104 128.25 194.062C128.25 197.146 126.604 199.208 123.312 200.25C122.104 200.625 120.771 200.812 119.312 200.812C116.062 200.812 113.5 199.792 111.625 197.75C110.333 196.292 109.688 194.604 109.688 192.688ZM154.938 168C150.021 168 146.208 169.938 143.5 173.812C141.417 176.854 140.375 180.625 140.375 185.125C140.375 192 142.396 196.958 146.438 200C148.771 201.75 151.521 202.625 154.688 202.625C159.604 202.625 163.396 200.646 166.062 196.688C168.104 193.646 169.125 189.854 169.125 185.312C169.125 178.021 166.917 172.938 162.5 170.062C160.333 168.688 157.812 168 154.938 168ZM154.875 201C151.542 201 149.333 198.979 148.25 194.938C147.625 192.521 147.312 189.312 147.312 185.312C147.312 176.604 148.958 171.542 152.25 170.125C153.042 169.792 153.896 169.625 154.812 169.625C158.104 169.625 160.271 171.646 161.312 175.688C161.896 178.021 162.188 181.146 162.188 185.062C162.188 193.979 160.542 199.146 157.25 200.562C156.542 200.854 155.75 201 154.875 201ZM196.188 203.938L223.312 163.875L221.312 162.562L194.125 202.625L196.188 203.938ZM197.188 163.188C193.438 163.188 190.625 164.625 188.75 167.5C187.625 169.292 187.062 171.375 187.062 173.75C187.062 178.125 188.604 181.25 191.688 183.125C193.271 184.083 195.042 184.562 197 184.562C200.792 184.562 203.604 183.104 205.438 180.188C206.562 178.396 207.125 176.312 207.125 173.938C207.125 169.312 205.479 166.125 202.188 164.375C200.688 163.583 199.021 163.188 197.188 163.188ZM197.125 183.312C195.083 183.312 193.792 182.021 193.25 179.438C192.958 178.104 192.812 176.271 192.812 173.938C192.812 168.771 193.667 165.75 195.375 164.875C195.875 164.625 196.438 164.5 197.062 164.5C199.062 164.5 200.333 165.75 200.875 168.25C201.167 169.667 201.312 171.5 201.312 173.75C201.312 179.5 200.229 182.646 198.062 183.188C197.729 183.271 197.417 183.312 197.125 183.312ZM221.375 181.25C217.625 181.25 214.812 182.688 212.938 185.562C211.812 187.354 211.25 189.438 211.25 191.812C211.25 196.188 212.792 199.312 215.875 201.188C217.458 202.146 219.229 202.625 221.188 202.625C224.979 202.625 227.792 201.167 229.625 198.25C230.75 196.458 231.312 194.375 231.312 192C231.312 187.375 229.667 184.188 226.375 182.438C224.875 181.646 223.208 181.25 221.375 181.25ZM221.312 201.375C219.271 201.375 217.979 200.083 217.438 197.5C217.146 196.125 217 194.292 217 192C217 186.833 217.854 183.812 219.562 182.938C220.062 182.688 220.625 182.562 221.25 182.562C223.25 182.562 224.521 183.812 225.062 186.312C225.354 187.729 225.5 189.562 225.5 191.812C225.5 197.562 224.417 200.708 222.25 201.25C221.917 201.333 221.604 201.375 221.312 201.375Z" fill="#00490C"/>
</g>
<g filter="url(#filter2_d_20_81)">
<path d="M134.188 226.875C128.938 226.875 124.479 228.583 120.812 232C116.896 235.625 114.938 240.312 114.938 246.062C114.938 252.729 117.292 257.917 122 261.625C125.458 264.292 129.458 265.625 134 265.625C139.208 265.625 143.646 263.917 147.312 260.5C151.188 256.833 153.125 252.104 153.125 246.312C153.125 239.438 150.708 234.208 145.875 230.625C142.5 228.125 138.604 226.875 134.188 226.875ZM134.188 263.875C126.521 263.792 122.667 257.938 122.625 246.312C122.667 234.562 126.458 228.667 134 228.625C141.542 228.708 145.333 234.5 145.375 246C145.333 257.875 141.604 263.833 134.188 263.875ZM173 263.438H168.562V239.938H175.688V238.312H168.562V237.938C168.562 231.188 169.375 227.25 171 226.125C171.5 225.792 172.083 225.625 172.75 225.625C173.917 225.625 174.896 226.396 175.688 227.938C176.479 229.562 177 230.5 177.25 230.75C177.792 231.25 178.375 231.5 179 231.5C180.5 231.5 181.438 230.896 181.812 229.688C181.896 229.396 181.938 229.125 181.938 228.875C181.938 227.208 180.875 225.896 178.75 224.938C177.375 224.354 175.792 224.062 174 224.062C169.667 224.062 166.5 225.75 164.5 229.125C163.208 231.333 162.562 234.083 162.562 237.375V238.312H157.875V239.938H162.562V259.875C162.562 261.75 161.833 262.875 160.375 263.25C159.75 263.375 158.917 263.438 157.875 263.438V265H174.5C174.5 264.125 174.229 263.625 173.688 263.5C173.479 263.458 173.25 263.438 173 263.438ZM193.062 263.438H188.625V239.938H195.75V238.312H188.625V237.938C188.625 231.188 189.438 227.25 191.062 226.125C191.562 225.792 192.146 225.625 192.812 225.625C193.979 225.625 194.958 226.396 195.75 227.938C196.542 229.562 197.062 230.5 197.312 230.75C197.854 231.25 198.438 231.5 199.062 231.5C200.562 231.5 201.5 230.896 201.875 229.688C201.958 229.396 202 229.125 202 228.875C202 227.208 200.938 225.896 198.812 224.938C197.438 224.354 195.854 224.062 194.062 224.062C189.729 224.062 186.562 225.75 184.562 229.125C183.271 231.333 182.625 234.083 182.625 237.375V238.312H177.938V239.938H182.625V259.875C182.625 261.75 181.896 262.875 180.438 263.25C179.812 263.375 178.979 263.438 177.938 263.438V265H194.562C194.562 264.125 194.292 263.625 193.75 263.5C193.542 263.458 193.312 263.438 193.062 263.438Z" fill="#00490C"/>
</g>
<defs>
<filter id="filter0_d_20_81" x="0" y="37.6532" width="350.021" height="350.347" filterUnits="userSpaceOnUse" color-interpolation-filters="sRGB">
<feFlood flood-opacity="0" result="BackgroundImageFix"/>
<feColorMatrix in="SourceAlpha" type="matrix" values="0 0 0 0 0 0 0 0 0 0 0 0 0 0 0 0 0 0 127 0" result="hardAlpha"/>
<feOffset dx="10" dy="10"/>
<feGaussianBlur stdDeviation="25"/>
<feComposite in2="hardAlpha" operator="out"/>
<feColorMatrix type="matrix" values="0 0 0 0 0 0 0 0 0 0 0 0 0 0 0 0 0 0 0.64 0"/>
<feBlend mode="normal" in2="BackgroundImageFix" result="effect1_dropShadow_20_81"/>
<feBlend mode="normal" in="SourceGraphic" in2="effect1_dropShadow_20_81" result="shape"/>
</filter>
<filter id="filter1_d_20_81" x="103.5" y="162.562" width="131.812" height="49.375" filterUnits="userSpaceOnUse" color-interpolation-filters="sRGB">
<feFlood flood-opacity="0" result="BackgroundImageFix"/>
<feColorMatrix in="SourceAlpha" type="matrix" values="0 0 0 0 0 0 0 0 0 0 0 0 0 0 0 0 0 0 127 0" result="hardAlpha"/>
<feOffset dy="4"/>
<feGaussianBlur stdDeviation="2"/>
<feComposite in2="hardAlpha" operator="out"/>
<feColorMatrix type="matrix" values="0 0 0 0 0 0 0 0 0 0 0 0 0 0 0 0 0 0 0.25 0"/>
<feBlend mode="normal" in2="BackgroundImageFix" result="effect1_dropShadow_20_81"/>
<feBlend mode="normal" in="SourceGraphic" in2="effect1_dropShadow_20_81" result="shape"/>
</filter>
<filter id="filter2_d_20_81" x="110.938" y="224.062" width="95.0625" height="49.5625" filterUnits="userSpaceOnUse" color-interpolation-filters="sRGB">
<feFlood flood-opacity="0" result="BackgroundImageFix"/>
<feColorMatrix in="SourceAlpha" type="matrix" values="0 0 0 0 0 0 0 0 0 0 0 0 0 0 0 0 0 0 127 0" result="hardAlpha"/>
<feOffset dy="4"/>
<feGaussianBlur stdDeviation="2"/>
<feComposite in2="hardAlpha" operator="out"/>
<feColorMatrix type="matrix" values="0 0 0 0 0 0 0 0 0 0 0 0 0 0 0 0 0 0 0.25 0"/>
<feBlend mode="normal" in2="BackgroundImageFix" result="effect1_dropShadow_20_81"/>
<feBlend mode="normal" in="SourceGraphic" in2="effect1_dropShadow_20_81" result="shape"/>
</filter>
</defs>
</svg>
