<svg width="91" height="19" viewBox="0 0 91 19" fill="none" xmlns="http://www.w3.org/2000/svg">
<path d="M1.01136 15V3.36364H5.60227C6.48485 3.36364 7.23674 3.5322 7.85795 3.86932C8.47917 4.20265 8.95265 4.66667 9.27841 5.26136C9.60795 5.85227 9.77273 6.53409 9.77273 7.30682C9.77273 8.07955 9.60606 8.76136 9.27273 9.35227C8.93939 9.94318 8.45644 10.4034 7.82386 10.733C7.19508 11.0625 6.43371 11.2273 5.53977 11.2273H2.61364V9.25568H5.14205C5.61553 9.25568 6.00568 9.17424 6.3125 9.01136C6.62311 8.8447 6.85417 8.61553 7.00568 8.32386C7.16098 8.02841 7.23864 7.68939 7.23864 7.30682C7.23864 6.92045 7.16098 6.58333 7.00568 6.29545C6.85417 6.00379 6.62311 5.77841 6.3125 5.61932C6.00189 5.45644 5.60795 5.375 5.13068 5.375H3.47159V15H1.01136ZM11.3253 15V6.27273H13.6719V7.79545H13.7628C13.9219 7.25379 14.1889 6.8447 14.5639 6.56818C14.9389 6.28788 15.3707 6.14773 15.8594 6.14773C15.9806 6.14773 16.1113 6.1553 16.2514 6.17045C16.3916 6.18561 16.5147 6.20644 16.6207 6.23295V8.38068C16.5071 8.34659 16.3499 8.31629 16.1491 8.28977C15.9484 8.26326 15.7647 8.25 15.598 8.25C15.242 8.25 14.9238 8.32765 14.6435 8.48295C14.367 8.63447 14.1473 8.84659 13.9844 9.11932C13.8253 9.39205 13.7457 9.70644 13.7457 10.0625V15H11.3253ZM21.4091 15.1705C20.5265 15.1705 19.7633 14.983 19.1193 14.608C18.4792 14.2292 17.9848 13.7027 17.6364 13.0284C17.2879 12.3504 17.1136 11.5644 17.1136 10.6705C17.1136 9.76894 17.2879 8.98106 17.6364 8.30682C17.9848 7.62879 18.4792 7.10227 19.1193 6.72727C19.7633 6.34848 20.5265 6.15909 21.4091 6.15909C22.2917 6.15909 23.053 6.34848 23.6932 6.72727C24.3371 7.10227 24.8333 7.62879 25.1818 8.30682C25.5303 8.98106 25.7045 9.76894 25.7045 10.6705C25.7045 11.5644 25.5303 12.3504 25.1818 13.0284C24.8333 13.7027 24.3371 14.2292 23.6932 14.608C23.053 14.983 22.2917 15.1705 21.4091 15.1705ZM21.4205 13.2955C21.822 13.2955 22.1572 13.1818 22.4261 12.9545C22.6951 12.7235 22.8977 12.4091 23.0341 12.0114C23.1742 11.6136 23.2443 11.161 23.2443 10.6534C23.2443 10.1458 23.1742 9.69318 23.0341 9.29545C22.8977 8.89773 22.6951 8.58333 22.4261 8.35227C22.1572 8.12121 21.822 8.00568 21.4205 8.00568C21.0152 8.00568 20.6742 8.12121 20.3977 8.35227C20.125 8.58333 19.9186 8.89773 19.7784 9.29545C19.642 9.69318 19.5739 10.1458 19.5739 10.6534C19.5739 11.161 19.642 11.6136 19.7784 12.0114C19.9186 12.4091 20.125 12.7235 20.3977 12.9545C20.6742 13.1818 21.0152 13.2955 21.4205 13.2955ZM30.4943 15.142C29.8314 15.142 29.2311 14.9716 28.6932 14.6307C28.1591 14.286 27.7348 13.7803 27.4205 13.1136C27.1098 12.4432 26.9545 11.6212 26.9545 10.6477C26.9545 9.64773 27.1155 8.81629 27.4375 8.15341C27.7595 7.48674 28.1875 6.98864 28.7216 6.65909C29.2595 6.32576 29.8485 6.15909 30.4886 6.15909C30.9773 6.15909 31.3845 6.24242 31.7102 6.40909C32.0398 6.57197 32.3049 6.77652 32.5057 7.02273C32.7102 7.26515 32.8655 7.50379 32.9716 7.73864H33.0455V3.36364H35.4602V15H33.0739V13.6023H32.9716C32.858 13.8447 32.697 14.0852 32.4886 14.3239C32.2841 14.5587 32.017 14.7538 31.6875 14.9091C31.3617 15.0644 30.964 15.142 30.4943 15.142ZM31.2614 13.2159C31.6515 13.2159 31.9811 13.1098 32.25 12.8977C32.5227 12.6818 32.7311 12.3807 32.875 11.9943C33.0227 11.608 33.0966 11.1553 33.0966 10.6364C33.0966 10.1174 33.0246 9.66667 32.8807 9.28409C32.7367 8.90151 32.5284 8.60606 32.2557 8.39773C31.983 8.18939 31.6515 8.08523 31.2614 8.08523C30.8636 8.08523 30.5284 8.19318 30.2557 8.40909C29.983 8.625 29.7765 8.92424 29.6364 9.30682C29.4962 9.68939 29.4261 10.1326 29.4261 10.6364C29.4261 11.1439 29.4962 11.5928 29.6364 11.983C29.7803 12.3693 29.9867 12.6723 30.2557 12.892C30.5284 13.108 30.8636 13.2159 31.2614 13.2159ZM43.0469 11.2841V6.27273H45.4673V15H43.1435V13.4148H43.0526C42.8556 13.9261 42.5279 14.3371 42.0696 14.6477C41.6151 14.9583 41.0601 15.1136 40.4048 15.1136C39.8215 15.1136 39.3082 14.9811 38.8651 14.7159C38.4219 14.4508 38.0753 14.0739 37.8253 13.5852C37.5791 13.0966 37.4541 12.5114 37.4503 11.8295V6.27273H39.8707V11.3977C39.8745 11.9129 40.0128 12.3201 40.2855 12.6193C40.5582 12.9186 40.9238 13.0682 41.3821 13.0682C41.6738 13.0682 41.9465 13.0019 42.2003 12.8693C42.4541 12.733 42.6586 12.5322 42.8139 12.267C42.973 12.0019 43.0507 11.6742 43.0469 11.2841ZM51.3466 15.1705C50.4527 15.1705 49.6837 14.9811 49.0398 14.6023C48.3996 14.2197 47.9072 13.6894 47.5625 13.0114C47.2216 12.3333 47.0511 11.553 47.0511 10.6705C47.0511 9.77652 47.2235 8.99242 47.5682 8.31818C47.9167 7.64015 48.411 7.11174 49.0511 6.73295C49.6913 6.35038 50.4527 6.15909 51.3352 6.15909C52.0966 6.15909 52.7633 6.29735 53.3352 6.57386C53.9072 6.85038 54.3598 7.23864 54.6932 7.73864C55.0265 8.23864 55.2102 8.82576 55.2443 9.5H52.9602C52.8958 9.06439 52.7254 8.71401 52.4489 8.44886C52.1761 8.17992 51.8182 8.04545 51.375 8.04545C51 8.04545 50.6723 8.14773 50.392 8.35227C50.1155 8.55303 49.8996 8.84659 49.7443 9.23295C49.589 9.61932 49.5114 10.0871 49.5114 10.6364C49.5114 11.1932 49.5871 11.6667 49.7386 12.0568C49.8939 12.447 50.1117 12.7443 50.392 12.9489C50.6723 13.1534 51 13.2557 51.375 13.2557C51.6515 13.2557 51.8996 13.1989 52.1193 13.0852C52.3428 12.9716 52.5265 12.8068 52.6705 12.5909C52.8182 12.3712 52.9148 12.108 52.9602 11.8011H55.2443C55.2064 12.4678 55.0246 13.0549 54.6989 13.5625C54.3769 14.0663 53.9318 14.4602 53.3636 14.7443C52.7955 15.0284 52.1231 15.1705 51.3466 15.1705ZM61.4361 6.27273V8.09091H56.1804V6.27273H61.4361ZM57.3736 4.18182H59.794V12.3182C59.794 12.5417 59.8281 12.7159 59.8963 12.8409C59.9645 12.9621 60.0592 13.0473 60.1804 13.0966C60.3054 13.1458 60.4493 13.1705 60.6122 13.1705C60.7259 13.1705 60.8395 13.161 60.9531 13.142C61.0668 13.1193 61.1539 13.1023 61.2145 13.0909L61.5952 14.892C61.474 14.9299 61.3035 14.9735 61.0838 15.0227C60.8641 15.0758 60.5971 15.108 60.2827 15.1193C59.6993 15.142 59.188 15.0644 58.7486 14.8864C58.313 14.7083 57.974 14.4318 57.7315 14.0568C57.4891 13.6818 57.3698 13.2083 57.3736 12.6364V4.18182ZM70.1648 8.76136L67.9489 8.89773C67.911 8.70833 67.8295 8.53788 67.7045 8.38636C67.5795 8.23106 67.4148 8.10795 67.2102 8.01705C67.0095 7.92235 66.7689 7.875 66.4886 7.875C66.1136 7.875 65.7973 7.95455 65.5398 8.11364C65.2822 8.26894 65.1534 8.47727 65.1534 8.73864C65.1534 8.94697 65.2367 9.12311 65.4034 9.26705C65.5701 9.41098 65.8561 9.52652 66.2614 9.61364L67.8409 9.93182C68.6894 10.1061 69.322 10.3864 69.7386 10.7727C70.1553 11.1591 70.3636 11.6667 70.3636 12.2955C70.3636 12.8674 70.1951 13.3693 69.858 13.8011C69.5246 14.233 69.0663 14.5701 68.483 14.8125C67.9034 15.0511 67.2348 15.1705 66.4773 15.1705C65.322 15.1705 64.4015 14.9299 63.7159 14.4489C63.0341 13.964 62.6345 13.3049 62.517 12.4716L64.8977 12.3466C64.9697 12.6989 65.1439 12.9678 65.4205 13.1534C65.697 13.3352 66.0511 13.4261 66.483 13.4261C66.9072 13.4261 67.2481 13.3447 67.5057 13.1818C67.767 13.0152 67.8996 12.8011 67.9034 12.5398C67.8996 12.3201 67.8068 12.1402 67.625 12C67.4432 11.8561 67.1629 11.7462 66.7841 11.6705L65.2727 11.3693C64.4205 11.1989 63.786 10.9034 63.3693 10.483C62.9564 10.0625 62.75 9.52652 62.75 8.875C62.75 8.31439 62.9015 7.83144 63.2045 7.42614C63.5114 7.02083 63.9413 6.70833 64.4943 6.48864C65.0511 6.26894 65.7027 6.15909 66.4489 6.15909C67.5511 6.15909 68.4186 6.39205 69.0511 6.85795C69.6875 7.32386 70.0587 7.95833 70.1648 8.76136Z" fill="white"/>
<path d="M81 9L85 13L89 9" stroke="white" stroke-width="2" stroke-linecap="round" stroke-linejoin="round"/>
</svg>
