<svg width="29" height="29" viewBox="0 0 29 29" fill="none" xmlns="http://www.w3.org/2000/svg">
<path d="M18.7291 22.9583H16.9166V24.7708C16.9166 25.7737 17.7262 26.5833 18.7291 26.5833C19.732 26.5833 20.5416 25.7737 20.5416 24.7708C20.5416 23.7679 19.732 22.9583 18.7291 22.9583Z" stroke="white" stroke-width="2" stroke-linecap="round" stroke-linejoin="round"/>
<path d="M11.4791 16.9167C12.482 16.9167 13.2916 17.7263 13.2916 18.7292V24.7709C13.2916 25.7738 12.482 26.5834 11.4791 26.5834C10.4762 26.5834 9.66663 25.7738 9.66663 24.7709V18.7292C9.66663 17.7263 10.4762 16.9167 11.4791 16.9167Z" stroke="white" stroke-width="2" stroke-linecap="round" stroke-linejoin="round"/>
<path d="M4.22913 16.9167H6.04163V18.7292C6.04163 19.7321 5.23204 20.5417 4.22913 20.5417C3.22621 20.5417 2.41663 19.7321 2.41663 18.7292C2.41663 17.7263 3.22621 16.9167 4.22913 16.9167Z" stroke="white" stroke-width="2" stroke-linecap="round" stroke-linejoin="round"/>
<path d="M16.9166 17.5208C16.9166 16.5179 17.7262 15.7083 18.7291 15.7083H24.7708C25.7737 15.7083 26.5833 16.5179 26.5833 17.5208C26.5833 18.5237 25.7737 19.3333 24.7708 19.3333H18.7291C17.7262 19.3333 16.9166 18.5237 16.9166 17.5208Z" stroke="white" stroke-width="2" stroke-linecap="round" stroke-linejoin="round"/>
<path d="M12.0833 11.4792C12.0833 10.4763 11.2737 9.66669 10.2708 9.66669H4.22913C3.22621 9.66669 2.41663 10.4763 2.41663 11.4792C2.41663 12.4821 3.22621 13.2917 4.22913 13.2917H10.2708C11.2737 13.2917 12.0833 12.4821 12.0833 11.4792Z" stroke="white" stroke-width="2" stroke-linecap="round" stroke-linejoin="round"/>
<path d="M24.7709 12.0833H22.9584V10.2708C22.9584 9.2679 23.768 8.45831 24.7709 8.45831C25.7738 8.45831 26.5834 9.2679 26.5834 10.2708C26.5834 11.2737 25.7738 12.0833 24.7709 12.0833Z" stroke="white" stroke-width="2" stroke-linecap="round" stroke-linejoin="round"/>
<path d="M17.5209 12.0834C16.518 12.0834 15.7084 11.2738 15.7084 10.2709V4.22919C15.7084 3.22627 16.518 2.41669 17.5209 2.41669C18.5238 2.41669 19.3334 3.22627 19.3334 4.22919V10.2709C19.3334 11.2738 18.5238 12.0834 17.5209 12.0834Z" stroke="white" stroke-width="2" stroke-linecap="round" stroke-linejoin="round"/>
<path d="M10.2709 6.04169H12.0834V4.22919C12.0834 3.22627 11.2738 2.41669 10.2709 2.41669C9.26796 2.41669 8.45837 3.22627 8.45837 4.22919C8.45837 5.2321 9.26796 6.04169 10.2709 6.04169Z" stroke="white" stroke-width="2" stroke-linecap="round" stroke-linejoin="round"/>
</svg>
